<svg id="svg" version="1.1" xmlns="http://www.w3.org/2000/svg" xmlns:xlink="http://www.w3.org/1999/xlink" width="400" height="400" viewBox="0, 0, 400,400"><g id="svgg"><path id="path0" d="M88.400 3.600 C 88.400 5.733,88.237 7.200,88.000 7.200 C 87.780 7.200,87.600 7.384,87.600 7.609 C 87.600 8.256,83.283 12.400,82.609 12.400 C 82.274 12.400,82.000 12.580,82.000 12.800 C 82.000 13.020,81.500 13.200,80.888 13.200 C 80.235 13.200,79.539 13.530,79.200 14.000 C 78.883 14.440,78.303 14.800,77.912 14.800 C 77.496 14.800,77.200 15.096,77.200 15.512 C 77.200 15.903,76.840 16.483,76.400 16.800 C 75.135 17.712,75.135 383.088,76.400 384.000 C 76.840 384.317,77.200 384.897,77.200 385.288 C 77.200 385.704,77.496 386.000,77.912 386.000 C 78.303 386.000,78.883 386.360,79.200 386.800 C 79.539 387.270,80.235 387.600,80.888 387.600 C 81.500 387.600,82.000 387.780,82.000 388.000 C 82.000 388.220,82.275 388.400,82.611 388.400 C 82.946 388.400,84.031 389.210,85.021 390.200 C 86.011 391.190,86.996 392.000,87.211 392.000 C 87.425 392.000,87.600 392.360,87.600 392.800 C 87.600 393.240,87.780 393.600,88.000 393.600 C 88.233 393.600,88.400 394.933,88.400 396.800 L 88.400 400.000 203.600 400.000 L 318.800 400.000 318.800 396.800 L 318.800 393.600 324.429 393.600 C 328.773 393.600,330.187 393.470,330.629 393.029 C 331.492 392.166,331.492 8.634,330.629 7.771 C 330.187 7.330,328.773 7.200,324.429 7.200 L 318.800 7.200 318.800 3.600 L 318.800 0.000 203.600 0.000 L 88.400 0.000 88.400 3.600 M107.600 25.600 C 107.917 26.040,108.323 26.400,108.502 26.400 C 109.035 26.400,111.600 29.131,111.600 29.698 C 111.600 29.987,111.960 30.483,112.400 30.800 C 113.147 31.338,113.200 31.835,113.200 38.288 C 113.200 42.629,113.349 45.200,113.600 45.200 C 113.820 45.200,114.000 45.476,114.000 45.813 C 114.000 46.609,116.591 49.200,117.387 49.200 C 117.724 49.200,118.000 49.380,118.000 49.600 C 118.000 49.835,119.400 50.000,121.400 50.000 L 124.800 50.000 124.800 40.688 C 124.800 31.835,124.839 31.348,125.600 30.800 C 126.040 30.483,126.400 29.987,126.400 29.698 C 126.400 29.048,129.001 26.400,129.640 26.400 C 129.896 26.400,130.442 26.012,130.853 25.539 L 131.600 24.678 132.347 25.539 C 132.758 26.012,133.304 26.400,133.560 26.400 C 134.199 26.400,136.800 29.048,136.800 29.698 C 136.800 29.987,137.160 30.483,137.600 30.800 C 138.343 31.335,138.400 31.835,138.400 37.800 C 138.400 43.765,138.343 44.265,137.600 44.800 C 137.160 45.117,136.800 45.613,136.800 45.902 C 136.800 46.584,134.184 49.200,133.502 49.200 C 133.213 49.200,132.717 49.560,132.400 50.000 C 131.908 50.682,131.365 50.800,128.712 50.800 L 125.600 50.800 125.600 56.600 L 125.600 62.400 128.712 62.400 C 131.365 62.400,131.908 62.518,132.400 63.200 C 132.717 63.640,133.213 64.000,133.502 64.000 C 134.152 64.000,136.800 66.601,136.800 67.240 C 136.800 67.496,137.188 68.042,137.661 68.453 L 138.522 69.200 137.661 69.947 C 137.188 70.358,136.800 70.904,136.800 71.160 C 136.800 71.830,134.136 74.400,133.442 74.400 C 133.120 74.400,132.574 74.683,132.229 75.029 C 131.657 75.600,131.543 75.600,130.971 75.029 C 130.626 74.683,130.080 74.400,129.758 74.400 C 129.031 74.400,126.400 71.816,126.400 71.102 C 126.400 70.813,126.040 70.317,125.600 70.000 C 124.918 69.508,124.800 68.965,124.800 66.312 L 124.800 63.200 121.400 63.200 C 119.400 63.200,118.000 63.365,118.000 63.600 C 118.000 63.820,117.724 64.000,117.387 64.000 C 116.591 64.000,114.000 66.591,114.000 67.387 C 114.000 67.724,113.820 68.000,113.600 68.000 C 113.380 68.000,113.200 68.320,113.200 68.712 C 113.200 69.103,112.840 69.683,112.400 70.000 C 111.960 70.317,111.600 70.813,111.600 71.102 C 111.600 71.705,109.020 74.400,108.442 74.400 C 108.230 74.400,107.774 74.683,107.429 75.029 C 106.857 75.600,106.743 75.600,106.171 75.029 C 105.826 74.683,105.280 74.400,104.958 74.400 C 104.231 74.400,101.600 71.816,101.600 71.102 C 101.600 70.813,101.240 70.317,100.800 70.000 C 100.019 69.437,100.000 68.965,100.000 50.400 C 100.000 31.835,100.019 31.363,100.800 30.800 C 101.240 30.483,101.600 29.987,101.600 29.698 C 101.600 29.410,102.224 28.549,102.987 27.787 C 103.749 27.024,104.610 26.400,104.898 26.400 C 105.187 26.400,105.683 26.040,106.000 25.600 C 106.317 25.160,106.677 24.800,106.800 24.800 C 106.923 24.800,107.283 25.160,107.600 25.600 M170.000 125.600 C 170.317 126.040,170.813 126.400,171.102 126.400 C 171.912 126.400,174.243 128.921,174.545 130.124 C 174.694 130.716,174.992 131.200,175.208 131.200 C 175.423 131.200,175.600 131.560,175.600 132.000 C 175.600 132.440,175.780 132.800,176.000 132.800 C 176.220 132.800,176.400 133.076,176.400 133.413 C 176.400 134.209,178.991 136.800,179.787 136.800 C 180.124 136.800,180.400 136.980,180.400 137.200 C 180.400 137.420,180.720 137.600,181.112 137.600 C 181.503 137.600,182.083 137.960,182.400 138.400 C 182.717 138.840,183.213 139.200,183.502 139.200 C 184.069 139.200,186.800 141.765,186.800 142.298 C 186.800 142.477,187.160 142.883,187.600 143.200 C 188.040 143.517,188.400 144.097,188.400 144.488 C 188.400 144.880,188.580 145.200,188.800 145.200 C 189.020 145.200,189.200 145.476,189.200 145.813 C 189.200 146.499,191.742 149.200,192.387 149.200 C 192.614 149.200,192.800 149.380,192.800 149.600 C 192.800 149.853,195.600 150.000,200.400 150.000 C 205.200 150.000,208.000 149.853,208.000 149.600 C 208.000 149.380,208.186 149.200,208.413 149.200 C 209.058 149.200,211.600 146.499,211.600 145.813 C 211.600 145.476,211.780 145.200,212.000 145.200 C 212.220 145.200,212.400 144.880,212.400 144.488 C 212.400 144.097,212.760 143.517,213.200 143.200 C 213.640 142.883,214.000 142.477,214.000 142.298 C 214.000 141.765,216.731 139.200,217.298 139.200 C 217.587 139.200,218.083 138.840,218.400 138.400 C 218.717 137.960,219.297 137.600,219.688 137.600 C 220.080 137.600,220.400 137.420,220.400 137.200 C 220.400 136.980,220.676 136.800,221.013 136.800 C 222.001 136.800,224.285 134.233,224.609 132.758 C 224.773 132.012,225.243 131.109,225.654 130.753 C 226.064 130.397,226.400 129.896,226.400 129.640 C 226.400 129.001,229.048 126.400,229.698 126.400 C 229.987 126.400,230.483 126.040,230.800 125.600 C 231.356 124.829,231.835 124.800,244.200 124.800 C 256.565 124.800,257.044 124.829,257.600 125.600 C 257.917 126.040,258.323 126.400,258.502 126.400 C 259.035 126.400,261.600 129.131,261.600 129.698 C 261.600 129.987,261.960 130.483,262.400 130.800 C 262.840 131.117,263.200 131.697,263.200 132.088 C 263.200 132.480,263.380 132.800,263.600 132.800 C 263.820 132.800,264.000 133.076,264.000 133.413 C 264.000 134.209,266.591 136.800,267.387 136.800 C 267.724 136.800,268.000 136.980,268.000 137.200 C 268.000 137.420,268.320 137.600,268.712 137.600 C 269.103 137.600,269.683 137.960,270.000 138.400 C 270.317 138.840,270.813 139.200,271.102 139.200 C 271.812 139.200,274.243 141.674,274.581 142.741 C 274.731 143.213,275.022 143.600,275.227 143.600 C 275.432 143.600,275.600 143.960,275.600 144.400 C 275.600 144.840,275.780 145.200,276.000 145.200 C 276.220 145.200,276.400 145.476,276.400 145.813 C 276.400 146.609,278.991 149.200,279.787 149.200 C 280.124 149.200,280.400 149.380,280.400 149.600 C 280.400 149.820,280.720 150.000,281.112 150.000 C 281.503 150.000,282.083 150.360,282.400 150.800 C 282.717 151.240,283.213 151.600,283.502 151.600 C 284.184 151.600,286.800 154.216,286.800 154.898 C 286.800 155.187,287.160 155.683,287.600 156.000 C 288.380 156.563,288.400 157.035,288.400 175.400 C 288.400 193.765,288.380 194.237,287.600 194.800 C 287.160 195.117,286.800 195.613,286.800 195.902 C 286.800 196.584,284.184 199.200,283.502 199.200 C 283.213 199.200,282.717 199.560,282.400 200.000 C 282.083 200.440,281.503 200.800,281.112 200.800 C 280.720 200.800,280.400 200.980,280.400 201.200 C 280.400 201.420,280.124 201.600,279.787 201.600 C 278.991 201.600,276.400 204.191,276.400 204.987 C 276.400 205.324,276.220 205.600,276.000 205.600 C 275.749 205.600,275.600 208.200,275.600 212.600 C 275.600 216.909,275.449 219.600,275.208 219.600 C 274.992 219.600,274.694 220.084,274.545 220.676 C 274.198 222.060,272.060 224.198,270.676 224.545 C 270.084 224.694,269.600 224.992,269.600 225.208 C 269.600 225.423,269.240 225.600,268.800 225.600 C 268.360 225.600,268.000 225.780,268.000 226.000 C 268.000 226.220,267.724 226.400,267.387 226.400 C 266.591 226.400,264.000 228.991,264.000 229.787 C 264.000 230.124,263.820 230.400,263.600 230.400 C 263.380 230.400,263.200 230.720,263.200 231.112 C 263.200 231.503,262.840 232.083,262.400 232.400 C 261.960 232.717,261.600 233.213,261.600 233.502 C 261.600 234.069,259.035 236.800,258.502 236.800 C 258.323 236.800,257.917 237.160,257.600 237.600 C 257.283 238.040,256.788 238.400,256.501 238.400 C 256.214 238.400,255.201 239.165,254.249 240.100 C 253.298 241.035,252.133 242.065,251.660 242.388 C 251.187 242.712,250.800 243.257,250.800 243.600 C 250.800 243.943,250.440 244.483,250.000 244.800 C 249.560 245.117,249.200 245.613,249.200 245.902 C 249.200 246.584,246.584 249.200,245.902 249.200 C 245.613 249.200,245.117 249.560,244.800 250.000 C 244.483 250.440,243.903 250.800,243.512 250.800 C 243.120 250.800,242.800 250.980,242.800 251.200 C 242.800 251.420,242.614 251.600,242.387 251.600 C 241.742 251.600,239.200 254.301,239.200 254.987 C 239.200 255.324,239.020 255.600,238.800 255.600 C 238.580 255.600,238.400 255.920,238.400 256.312 C 238.400 256.703,238.040 257.283,237.600 257.600 C 237.160 257.917,236.800 258.323,236.800 258.502 C 236.800 259.035,234.069 261.600,233.502 261.600 C 233.213 261.600,232.717 261.960,232.400 262.400 C 232.083 262.840,231.503 263.200,231.112 263.200 C 230.720 263.200,230.400 263.380,230.400 263.600 C 230.400 263.820,230.124 264.000,229.787 264.000 C 228.991 264.000,226.400 266.591,226.400 267.387 C 226.400 267.724,226.220 268.000,226.000 268.000 C 225.780 268.000,225.600 268.360,225.600 268.800 C 225.600 269.240,225.423 269.600,225.208 269.600 C 224.992 269.600,224.694 270.084,224.545 270.676 C 224.198 272.060,222.060 274.198,220.676 274.545 C 220.084 274.694,219.600 274.992,219.600 275.208 C 219.600 275.423,219.240 275.600,218.800 275.600 C 218.360 275.600,218.000 275.780,218.000 276.000 C 218.000 276.220,217.724 276.400,217.387 276.400 C 216.591 276.400,214.000 278.991,214.000 279.787 C 214.000 280.124,213.820 280.400,213.600 280.400 C 213.380 280.400,213.200 280.720,213.200 281.112 C 213.200 281.503,212.840 282.083,212.400 282.400 C 211.960 282.717,211.600 283.213,211.600 283.502 C 211.600 284.069,209.035 286.800,208.502 286.800 C 208.323 286.800,207.917 287.160,207.600 287.600 C 207.063 288.345,206.565 288.400,200.400 288.400 C 194.235 288.400,193.737 288.345,193.200 287.600 C 192.883 287.160,192.477 286.800,192.298 286.800 C 191.765 286.800,189.200 284.069,189.200 283.502 C 189.200 283.213,188.840 282.717,188.400 282.400 C 187.960 282.083,187.600 281.503,187.600 281.112 C 187.600 280.720,187.420 280.400,187.200 280.400 C 186.980 280.400,186.800 280.124,186.800 279.787 C 186.800 278.991,184.209 276.400,183.413 276.400 C 183.076 276.400,182.800 276.220,182.800 276.000 C 182.800 275.780,182.440 275.600,182.000 275.600 C 181.560 275.600,181.200 275.423,181.200 275.208 C 181.200 274.992,180.716 274.694,180.124 274.545 C 178.964 274.254,176.400 271.923,176.400 271.160 C 176.400 270.904,176.064 270.403,175.654 270.047 C 175.243 269.691,174.773 268.788,174.609 268.042 C 174.285 266.567,172.001 264.000,171.013 264.000 C 170.676 264.000,170.400 263.820,170.400 263.600 C 170.400 263.380,170.080 263.200,169.688 263.200 C 169.297 263.200,168.717 262.840,168.400 262.400 C 168.083 261.960,167.587 261.600,167.298 261.600 C 166.731 261.600,164.000 259.035,164.000 258.502 C 164.000 258.323,163.640 257.917,163.200 257.600 C 162.760 257.283,162.400 256.703,162.400 256.312 C 162.400 255.920,162.220 255.600,162.000 255.600 C 161.780 255.600,161.600 255.324,161.600 254.987 C 161.600 254.301,159.058 251.600,158.413 251.600 C 158.186 251.600,158.000 251.420,158.000 251.200 C 158.000 250.980,157.680 250.800,157.288 250.800 C 156.897 250.800,156.317 250.440,156.000 250.000 C 155.683 249.560,155.187 249.200,154.898 249.200 C 154.216 249.200,151.600 246.584,151.600 245.902 C 151.600 245.613,151.240 245.117,150.800 244.800 C 150.360 244.483,150.000 243.943,150.000 243.600 C 150.000 243.257,149.613 242.712,149.140 242.388 C 148.667 242.065,147.502 241.035,146.551 240.100 C 145.599 239.165,144.586 238.400,144.299 238.400 C 144.012 238.400,143.517 238.040,143.200 237.600 C 142.883 237.160,142.477 236.800,142.298 236.800 C 141.765 236.800,139.200 234.069,139.200 233.502 C 139.200 233.213,138.840 232.717,138.400 232.400 C 137.960 232.083,137.600 231.503,137.600 231.112 C 137.600 230.720,137.420 230.400,137.200 230.400 C 136.980 230.400,136.800 230.124,136.800 229.787 C 136.800 228.991,134.209 226.400,133.413 226.400 C 133.076 226.400,132.800 226.220,132.800 226.000 C 132.800 225.780,132.440 225.600,132.000 225.600 C 131.560 225.600,131.200 225.423,131.200 225.208 C 131.200 224.992,130.716 224.694,130.124 224.545 C 128.964 224.254,126.400 221.923,126.400 221.160 C 126.400 220.904,126.055 220.394,125.633 220.029 C 124.938 219.426,124.853 218.664,124.733 211.967 L 124.600 204.572 123.113 203.086 C 122.296 202.269,121.351 201.600,121.013 201.600 C 120.676 201.600,120.400 201.420,120.400 201.200 C 120.400 200.980,120.080 200.800,119.688 200.800 C 119.297 200.800,118.717 200.440,118.400 200.000 C 118.083 199.560,117.587 199.200,117.298 199.200 C 116.616 199.200,114.000 196.584,114.000 195.902 C 114.000 195.613,113.640 195.117,113.200 194.800 C 111.946 193.896,111.946 156.904,113.200 156.000 C 113.640 155.683,114.000 155.187,114.000 154.898 C 114.000 154.610,114.624 153.749,115.387 152.987 C 116.149 152.224,117.010 151.600,117.298 151.600 C 117.587 151.600,118.083 151.240,118.400 150.800 C 118.717 150.360,119.297 150.000,119.688 150.000 C 120.080 150.000,120.400 149.820,120.400 149.600 C 120.400 149.380,120.676 149.200,121.013 149.200 C 122.001 149.200,124.285 146.633,124.609 145.158 C 124.773 144.412,125.243 143.509,125.654 143.153 C 126.064 142.797,126.400 142.386,126.400 142.240 C 126.400 141.750,129.166 139.200,129.698 139.200 C 129.987 139.200,130.483 138.840,130.800 138.400 C 131.117 137.960,131.697 137.600,132.088 137.600 C 132.480 137.600,132.800 137.420,132.800 137.200 C 132.800 136.980,133.076 136.800,133.413 136.800 C 133.751 136.800,134.651 136.176,135.413 135.413 C 136.176 134.651,136.800 133.751,136.800 133.413 C 136.800 133.076,136.980 132.800,137.200 132.800 C 137.420 132.800,137.600 132.480,137.600 132.088 C 137.600 131.697,137.960 131.117,138.400 130.800 C 138.840 130.483,139.200 129.987,139.200 129.698 C 139.200 129.131,141.765 126.400,142.298 126.400 C 142.477 126.400,142.883 126.040,143.200 125.600 C 143.756 124.829,144.235 124.800,156.600 124.800 C 168.965 124.800,169.444 124.829,170.000 125.600 M270.000 325.600 C 270.317 326.040,270.813 326.400,271.102 326.400 C 271.912 326.400,274.243 328.921,274.545 330.124 C 274.694 330.716,274.992 331.200,275.208 331.200 C 275.431 331.200,275.600 332.575,275.600 334.400 L 275.600 337.600 279.200 337.600 C 281.333 337.600,282.800 337.437,282.800 337.200 C 282.800 336.980,283.076 336.800,283.413 336.800 C 283.751 336.800,284.651 336.176,285.413 335.413 C 286.176 334.651,286.800 333.751,286.800 333.413 C 286.800 333.076,286.980 332.800,287.200 332.800 C 287.420 332.800,287.600 332.480,287.600 332.088 C 287.600 331.697,287.960 331.117,288.400 330.800 C 288.840 330.483,289.200 329.987,289.200 329.698 C 289.200 329.166,291.750 326.400,292.240 326.400 C 292.386 326.400,292.842 326.012,293.253 325.539 L 294.000 324.678 294.747 325.539 C 295.158 326.012,295.704 326.400,295.960 326.400 C 296.599 326.400,299.200 329.048,299.200 329.698 C 299.200 329.987,299.560 330.483,300.000 330.800 C 300.781 331.363,300.800 331.835,300.800 350.400 C 300.800 368.965,300.781 369.437,300.000 370.000 C 299.560 370.317,299.200 370.813,299.200 371.102 C 299.200 371.816,296.569 374.400,295.842 374.400 C 295.520 374.400,294.974 374.683,294.629 375.029 C 294.057 375.600,293.943 375.600,293.371 375.029 C 293.026 374.683,292.570 374.400,292.358 374.400 C 291.780 374.400,289.200 371.705,289.200 371.102 C 289.200 370.813,288.840 370.317,288.400 370.000 C 287.653 369.462,287.600 368.965,287.600 362.512 C 287.600 358.171,287.451 355.600,287.200 355.600 C 286.980 355.600,286.800 355.324,286.800 354.987 C 286.800 354.191,284.209 351.600,283.413 351.600 C 283.076 351.600,282.800 351.420,282.800 351.200 C 282.800 350.963,281.333 350.800,279.200 350.800 L 275.600 350.800 275.600 360.200 C 275.600 366.078,275.453 369.600,275.208 369.600 C 274.992 369.600,274.694 370.084,274.545 370.676 C 274.233 371.921,271.901 374.400,271.042 374.400 C 270.720 374.400,270.174 374.683,269.829 375.029 C 269.257 375.600,269.143 375.600,268.571 375.029 C 268.226 374.683,267.680 374.400,267.358 374.400 C 266.631 374.400,264.000 371.816,264.000 371.102 C 264.000 370.813,263.640 370.317,263.200 370.000 C 262.457 369.465,262.400 368.965,262.400 363.000 C 262.400 357.035,262.457 356.535,263.200 356.000 C 263.640 355.683,264.000 355.187,264.000 354.898 C 264.000 354.216,266.616 351.600,267.298 351.600 C 267.587 351.600,268.083 351.240,268.400 350.800 C 268.886 350.126,269.435 350.000,271.888 350.000 L 274.800 350.000 274.800 344.200 L 274.800 338.400 271.888 338.400 C 269.435 338.400,268.886 338.274,268.400 337.600 C 268.083 337.160,267.587 336.800,267.298 336.800 C 266.648 336.800,264.000 334.199,264.000 333.560 C 264.000 333.304,263.612 332.758,263.139 332.347 L 262.278 331.600 263.139 330.853 C 263.612 330.442,264.000 329.896,264.000 329.640 C 264.000 329.001,266.648 326.400,267.298 326.400 C 267.587 326.400,268.083 326.040,268.400 325.600 C 268.717 325.160,269.077 324.800,269.200 324.800 C 269.323 324.800,269.683 325.160,270.000 325.600 " stroke="none" fill="#fcfcd4" fill-rule="evenodd"></path><path id="path1" d="M69.600 3.600 L 69.600 7.200 63.971 7.200 C 59.627 7.200,58.213 7.330,57.771 7.771 C 56.908 8.634,56.908 392.166,57.771 393.029 C 58.213 393.470,59.627 393.600,63.971 393.600 L 69.600 393.600 69.600 396.800 L 69.600 400.000 79.000 400.000 L 88.400 400.000 88.400 396.800 C 88.400 394.933,88.233 393.600,88.000 393.600 C 87.780 393.600,87.600 393.240,87.600 392.800 C 87.600 392.360,87.425 392.000,87.211 392.000 C 86.996 392.000,86.011 391.190,85.021 390.200 C 84.031 389.210,82.946 388.400,82.611 388.400 C 82.275 388.400,82.000 388.220,82.000 388.000 C 82.000 387.780,81.500 387.600,80.888 387.600 C 80.235 387.600,79.539 387.270,79.200 386.800 C 78.883 386.360,78.303 386.000,77.912 386.000 C 77.496 386.000,77.200 385.704,77.200 385.288 C 77.200 384.897,76.840 384.317,76.400 384.000 C 75.135 383.088,75.135 17.712,76.400 16.800 C 76.840 16.483,77.200 15.903,77.200 15.512 C 77.200 15.096,77.496 14.800,77.912 14.800 C 78.303 14.800,78.883 14.440,79.200 14.000 C 79.539 13.530,80.235 13.200,80.888 13.200 C 81.500 13.200,82.000 13.020,82.000 12.800 C 82.000 12.580,82.274 12.400,82.609 12.400 C 83.283 12.400,87.600 8.256,87.600 7.609 C 87.600 7.384,87.780 7.200,88.000 7.200 C 88.237 7.200,88.400 5.733,88.400 3.600 L 88.400 0.000 79.000 0.000 L 69.600 0.000 69.600 3.600 M106.000 25.600 C 105.683 26.040,105.187 26.400,104.898 26.400 C 104.610 26.400,103.749 27.024,102.987 27.787 C 102.224 28.549,101.600 29.410,101.600 29.698 C 101.600 29.987,101.240 30.483,100.800 30.800 C 100.019 31.363,100.000 31.835,100.000 50.400 C 100.000 68.965,100.019 69.437,100.800 70.000 C 101.240 70.317,101.600 70.813,101.600 71.102 C 101.600 71.816,104.231 74.400,104.958 74.400 C 105.280 74.400,105.826 74.683,106.171 75.029 C 106.743 75.600,106.857 75.600,107.429 75.029 C 107.774 74.683,108.230 74.400,108.442 74.400 C 109.020 74.400,111.600 71.705,111.600 71.102 C 111.600 70.813,111.960 70.317,112.400 70.000 C 112.840 69.683,113.200 69.103,113.200 68.712 C 113.200 68.320,113.380 68.000,113.600 68.000 C 113.820 68.000,114.000 67.724,114.000 67.387 C 114.000 66.591,116.591 64.000,117.387 64.000 C 117.724 64.000,118.000 63.820,118.000 63.600 C 118.000 63.365,119.400 63.200,121.400 63.200 L 124.800 63.200 124.800 66.312 C 124.800 68.965,124.918 69.508,125.600 70.000 C 126.040 70.317,126.400 70.813,126.400 71.102 C 126.400 71.816,129.031 74.400,129.758 74.400 C 130.080 74.400,130.626 74.683,130.971 75.029 C 131.543 75.600,131.657 75.600,132.229 75.029 C 132.574 74.683,133.120 74.400,133.442 74.400 C 134.136 74.400,136.800 71.830,136.800 71.160 C 136.800 70.904,137.188 70.358,137.661 69.947 L 138.522 69.200 137.661 68.453 C 137.188 68.042,136.800 67.496,136.800 67.240 C 136.800 66.601,134.152 64.000,133.502 64.000 C 133.213 64.000,132.717 63.640,132.400 63.200 C 131.908 62.518,131.365 62.400,128.712 62.400 L 125.600 62.400 125.600 56.600 L 125.600 50.800 128.712 50.800 C 131.365 50.800,131.908 50.682,132.400 50.000 C 132.717 49.560,133.213 49.200,133.502 49.200 C 134.184 49.200,136.800 46.584,136.800 45.902 C 136.800 45.613,137.160 45.117,137.600 44.800 C 138.343 44.265,138.400 43.765,138.400 37.800 C 138.400 31.835,138.343 31.335,137.600 30.800 C 137.160 30.483,136.800 29.987,136.800 29.698 C 136.800 29.048,134.199 26.400,133.560 26.400 C 133.304 26.400,132.758 26.012,132.347 25.539 L 131.600 24.678 130.853 25.539 C 130.442 26.012,129.896 26.400,129.640 26.400 C 129.001 26.400,126.400 29.048,126.400 29.698 C 126.400 29.987,126.040 30.483,125.600 30.800 C 124.839 31.348,124.800 31.835,124.800 40.688 L 124.800 50.000 121.400 50.000 C 119.400 50.000,118.000 49.835,118.000 49.600 C 118.000 49.380,117.724 49.200,117.387 49.200 C 116.591 49.200,114.000 46.609,114.000 45.813 C 114.000 45.476,113.820 45.200,113.600 45.200 C 113.349 45.200,113.200 42.629,113.200 38.288 C 113.200 31.835,113.147 31.338,112.400 30.800 C 111.960 30.483,111.600 29.987,111.600 29.698 C 111.600 29.131,109.035 26.400,108.502 26.400 C 108.323 26.400,107.917 26.040,107.600 25.600 C 107.283 25.160,106.923 24.800,106.800 24.800 C 106.677 24.800,106.317 25.160,106.000 25.600 M143.200 125.600 C 142.883 126.040,142.477 126.400,142.298 126.400 C 141.765 126.400,139.200 129.131,139.200 129.698 C 139.200 129.987,138.840 130.483,138.400 130.800 C 137.960 131.117,137.600 131.697,137.600 132.088 C 137.600 132.480,137.420 132.800,137.200 132.800 C 136.980 132.800,136.800 133.076,136.800 133.413 C 136.800 134.209,134.209 136.800,133.413 136.800 C 133.076 136.800,132.800 136.980,132.800 137.200 C 132.800 137.420,132.480 137.600,132.088 137.600 C 131.697 137.600,131.117 137.960,130.800 138.400 C 130.483 138.840,129.987 139.200,129.698 139.200 C 129.166 139.200,126.400 141.750,126.400 142.240 C 126.400 142.386,126.064 142.797,125.654 143.153 C 125.243 143.509,124.773 144.412,124.609 145.158 C 124.285 146.633,122.001 149.200,121.013 149.200 C 120.676 149.200,120.400 149.380,120.400 149.600 C 120.400 149.820,120.080 150.000,119.688 150.000 C 119.297 150.000,118.717 150.360,118.400 150.800 C 118.083 151.240,117.587 151.600,117.298 151.600 C 117.010 151.600,116.149 152.224,115.387 152.987 C 114.624 153.749,114.000 154.610,114.000 154.898 C 114.000 155.187,113.640 155.683,113.200 156.000 C 111.946 156.904,111.946 193.896,113.200 194.800 C 113.640 195.117,114.000 195.613,114.000 195.902 C 114.000 196.584,116.616 199.200,117.298 199.200 C 117.587 199.200,118.083 199.560,118.400 200.000 C 118.717 200.440,119.297 200.800,119.688 200.800 C 120.080 200.800,120.400 200.980,120.400 201.200 C 120.400 201.420,120.676 201.600,121.013 201.600 C 121.351 201.600,122.296 202.269,123.113 203.086 L 124.600 204.572 124.733 211.967 C 124.853 218.664,124.938 219.426,125.633 220.029 C 126.055 220.394,126.400 220.904,126.400 221.160 C 126.400 221.830,129.064 224.400,129.758 224.400 C 130.080 224.400,130.656 224.713,131.039 225.096 C 131.540 225.597,131.782 225.653,131.901 225.296 C 131.992 225.023,132.397 224.800,132.801 224.800 C 133.712 224.800,136.800 221.890,136.800 221.031 C 136.800 220.684,136.980 220.400,137.200 220.400 C 137.420 220.400,137.600 220.080,137.600 219.688 C 137.600 219.297,137.960 218.717,138.400 218.400 C 138.840 218.083,139.200 217.587,139.200 217.298 C 139.200 216.731,141.765 214.000,142.298 214.000 C 142.477 214.000,142.883 213.640,143.200 213.200 C 143.517 212.760,144.097 212.400,144.488 212.400 C 144.880 212.400,145.200 212.220,145.200 212.000 C 145.200 211.780,145.476 211.600,145.813 211.600 C 146.499 211.600,149.200 209.058,149.200 208.413 C 149.200 208.186,149.380 208.000,149.600 208.000 C 149.820 208.000,150.000 207.460,150.000 206.800 C 150.000 206.140,149.820 205.600,149.600 205.600 C 149.380 205.600,149.200 205.324,149.200 204.987 C 149.200 204.191,146.609 201.600,145.813 201.600 C 145.476 201.600,145.200 201.420,145.200 201.200 C 145.200 200.980,144.880 200.800,144.488 200.800 C 144.097 200.800,143.517 200.440,143.200 200.000 C 142.883 199.560,142.477 199.200,142.298 199.200 C 141.796 199.200,139.200 196.486,139.200 195.960 C 139.200 195.704,138.817 195.162,138.349 194.755 L 137.497 194.017 138.740 192.909 C 140.811 191.061,141.153 190.800,141.495 190.800 C 141.676 190.800,142.083 190.440,142.400 190.000 C 142.739 189.530,143.435 189.200,144.088 189.200 C 144.700 189.200,145.200 189.020,145.200 188.800 C 145.200 188.580,145.474 188.400,145.809 188.400 C 146.601 188.400,150.800 184.201,150.800 183.409 C 150.800 183.074,150.980 182.800,151.200 182.800 C 151.420 182.800,151.600 182.260,151.600 181.600 C 151.600 180.940,151.420 180.400,151.200 180.400 C 150.980 180.400,150.800 180.126,150.800 179.791 C 150.800 178.502,146.545 174.832,144.716 174.544 C 143.772 174.395,142.709 173.942,142.353 173.537 C 141.997 173.132,141.588 172.800,141.443 172.800 C 141.298 172.800,140.374 171.995,139.389 171.011 L 137.600 169.221 137.600 162.899 C 137.600 157.035,137.658 156.535,138.400 156.000 C 138.840 155.683,139.200 155.187,139.200 154.898 C 139.200 154.366,141.750 151.600,142.240 151.600 C 142.386 151.600,142.842 151.212,143.253 150.739 L 144.000 149.878 144.747 150.739 C 145.158 151.212,145.704 151.600,145.960 151.600 C 146.599 151.600,149.200 154.248,149.200 154.898 C 149.200 155.187,149.560 155.683,150.000 156.000 C 150.440 156.317,150.800 156.897,150.800 157.288 C 150.800 157.680,150.980 158.000,151.200 158.000 C 151.420 158.000,151.600 158.186,151.600 158.413 C 151.600 159.058,154.301 161.600,154.987 161.600 C 155.324 161.600,155.600 161.780,155.600 162.000 C 155.600 162.220,155.920 162.400,156.312 162.400 C 156.703 162.400,157.283 162.760,157.600 163.200 C 157.917 163.640,158.323 164.000,158.502 164.000 C 159.035 164.000,161.600 166.731,161.600 167.298 C 161.600 167.587,161.960 168.083,162.400 168.400 C 163.147 168.938,163.200 169.435,163.200 175.888 C 163.200 180.229,163.349 182.800,163.600 182.800 C 163.820 182.800,164.000 183.076,164.000 183.413 C 164.000 184.209,166.591 186.800,167.387 186.800 C 167.724 186.800,168.000 186.980,168.000 187.200 C 168.000 187.420,168.540 187.600,169.200 187.600 C 169.860 187.600,170.400 187.420,170.400 187.200 C 170.400 186.980,170.676 186.800,171.013 186.800 C 172.001 186.800,174.285 184.233,174.609 182.758 C 174.773 182.012,175.243 181.109,175.654 180.753 C 176.064 180.397,176.400 179.896,176.400 179.640 C 176.400 179.033,179.033 176.400,179.640 176.400 C 179.896 176.400,180.467 175.995,180.907 175.500 C 181.450 174.890,181.765 174.761,181.887 175.100 C 181.986 175.375,182.510 175.600,183.052 175.600 C 184.147 175.600,186.000 177.223,186.000 178.182 C 186.000 178.522,186.180 178.800,186.400 178.800 C 186.620 178.800,186.800 179.700,186.800 180.800 C 186.800 181.900,186.980 182.800,187.200 182.800 C 187.420 182.800,187.600 183.074,187.600 183.409 C 187.600 184.083,191.744 188.400,192.391 188.400 C 192.616 188.400,192.800 188.580,192.800 188.800 C 192.800 189.053,195.600 189.200,200.400 189.200 C 205.200 189.200,208.000 189.053,208.000 188.800 C 208.000 188.580,208.184 188.400,208.409 188.400 C 209.056 188.400,213.200 184.083,213.200 183.409 C 213.200 183.074,213.380 182.800,213.600 182.800 C 213.820 182.800,214.000 181.900,214.000 180.800 C 214.000 179.700,214.180 178.800,214.400 178.800 C 214.620 178.800,214.800 178.522,214.800 178.182 C 214.800 177.223,216.653 175.600,217.748 175.600 C 218.290 175.600,218.814 175.375,218.913 175.100 C 219.035 174.761,219.350 174.890,219.893 175.500 C 220.333 175.995,220.904 176.400,221.160 176.400 C 221.923 176.400,224.254 178.964,224.545 180.124 C 224.694 180.716,224.992 181.200,225.208 181.200 C 225.423 181.200,225.600 181.560,225.600 182.000 C 225.600 182.440,225.780 182.800,226.000 182.800 C 226.220 182.800,226.400 183.076,226.400 183.413 C 226.400 184.209,228.991 186.800,229.787 186.800 C 230.124 186.800,230.400 186.980,230.400 187.200 C 230.400 187.420,230.940 187.600,231.600 187.600 C 232.260 187.600,232.800 187.420,232.800 187.200 C 232.800 186.980,233.076 186.800,233.413 186.800 C 234.209 186.800,236.800 184.209,236.800 183.413 C 236.800 183.076,236.980 182.800,237.200 182.800 C 237.451 182.800,237.600 180.229,237.600 175.888 C 237.600 169.435,237.653 168.938,238.400 168.400 C 238.840 168.083,239.200 167.587,239.200 167.298 C 239.200 166.731,241.765 164.000,242.298 164.000 C 242.477 164.000,242.883 163.640,243.200 163.200 C 243.517 162.760,244.097 162.400,244.488 162.400 C 244.880 162.400,245.200 162.220,245.200 162.000 C 245.200 161.780,245.476 161.600,245.813 161.600 C 246.499 161.600,249.200 159.058,249.200 158.413 C 249.200 158.186,249.380 158.000,249.600 158.000 C 249.820 158.000,250.000 157.680,250.000 157.288 C 250.000 156.897,250.360 156.317,250.800 156.000 C 251.240 155.683,251.600 155.187,251.600 154.898 C 251.600 154.248,254.201 151.600,254.840 151.600 C 255.096 151.600,255.642 151.212,256.053 150.739 L 256.800 149.878 257.547 150.739 C 257.958 151.212,258.414 151.600,258.560 151.600 C 259.050 151.600,261.600 154.366,261.600 154.898 C 261.600 155.187,261.960 155.683,262.400 156.000 C 263.142 156.535,263.200 157.035,263.200 162.899 L 263.200 169.221 261.411 171.011 C 260.426 171.995,259.358 172.800,259.037 172.800 C 258.717 172.800,258.347 173.136,258.217 173.547 C 258.050 174.073,257.449 174.367,256.189 174.540 C 254.289 174.800,250.000 178.440,250.000 179.791 C 250.000 180.126,249.820 180.400,249.600 180.400 C 249.380 180.400,249.200 180.940,249.200 181.600 C 249.200 182.260,249.380 182.800,249.600 182.800 C 249.820 182.800,250.000 183.074,250.000 183.409 C 250.000 184.201,254.199 188.400,254.991 188.400 C 255.326 188.400,255.600 188.580,255.600 188.800 C 255.600 189.020,256.128 189.200,256.773 189.200 C 257.595 189.200,258.022 189.440,258.200 190.000 C 258.340 190.440,258.719 190.800,259.044 190.800 C 259.671 190.800,259.839 190.916,261.951 192.807 L 263.303 194.017 262.451 194.755 C 261.983 195.162,261.600 195.704,261.600 195.960 C 261.600 196.486,259.004 199.200,258.502 199.200 C 258.323 199.200,257.917 199.560,257.600 200.000 C 257.283 200.440,256.703 200.800,256.312 200.800 C 255.920 200.800,255.600 200.980,255.600 201.200 C 255.600 201.420,255.324 201.600,254.987 201.600 C 254.191 201.600,251.600 204.191,251.600 204.987 C 251.600 205.324,251.420 205.600,251.200 205.600 C 250.980 205.600,250.800 206.140,250.800 206.800 C 250.800 207.460,250.980 208.000,251.200 208.000 C 251.420 208.000,251.600 208.186,251.600 208.413 C 251.600 209.058,254.301 211.600,254.987 211.600 C 255.324 211.600,255.600 211.780,255.600 212.000 C 255.600 212.220,255.920 212.400,256.312 212.400 C 256.703 212.400,257.283 212.760,257.600 213.200 C 257.917 213.640,258.323 214.000,258.502 214.000 C 259.035 214.000,261.600 216.731,261.600 217.298 C 261.600 217.587,261.960 218.083,262.400 218.400 C 262.840 218.717,263.200 219.297,263.200 219.688 C 263.200 220.080,263.380 220.400,263.600 220.400 C 263.820 220.400,264.000 220.684,264.000 221.031 C 264.000 221.890,267.088 224.800,267.999 224.800 C 268.403 224.800,268.808 225.023,268.899 225.296 C 269.018 225.653,269.260 225.597,269.761 225.096 C 270.144 224.713,270.720 224.400,271.042 224.400 C 271.901 224.400,274.233 221.921,274.545 220.676 C 274.694 220.084,274.992 219.600,275.208 219.600 C 275.449 219.600,275.600 216.909,275.600 212.600 C 275.600 208.200,275.749 205.600,276.000 205.600 C 276.220 205.600,276.400 205.324,276.400 204.987 C 276.400 204.191,278.991 201.600,279.787 201.600 C 280.124 201.600,280.400 201.420,280.400 201.200 C 280.400 200.980,280.720 200.800,281.112 200.800 C 281.503 200.800,282.083 200.440,282.400 200.000 C 282.717 199.560,283.213 199.200,283.502 199.200 C 284.184 199.200,286.800 196.584,286.800 195.902 C 286.800 195.613,287.160 195.117,287.600 194.800 C 288.380 194.237,288.400 193.765,288.400 175.400 C 288.400 157.035,288.380 156.563,287.600 156.000 C 287.160 155.683,286.800 155.187,286.800 154.898 C 286.800 154.216,284.184 151.600,283.502 151.600 C 283.213 151.600,282.717 151.240,282.400 150.800 C 282.083 150.360,281.503 150.000,281.112 150.000 C 280.720 150.000,280.400 149.820,280.400 149.600 C 280.400 149.380,280.124 149.200,279.787 149.200 C 278.991 149.200,276.400 146.609,276.400 145.813 C 276.400 145.476,276.220 145.200,276.000 145.200 C 275.780 145.200,275.600 144.840,275.600 144.400 C 275.600 143.960,275.432 143.600,275.227 143.600 C 275.022 143.600,274.731 143.213,274.581 142.741 C 274.243 141.674,271.812 139.200,271.102 139.200 C 270.813 139.200,270.317 138.840,270.000 138.400 C 269.683 137.960,269.103 137.600,268.712 137.600 C 268.320 137.600,268.000 137.420,268.000 137.200 C 268.000 136.980,267.724 136.800,267.387 136.800 C 266.591 136.800,264.000 134.209,264.000 133.413 C 264.000 133.076,263.820 132.800,263.600 132.800 C 263.380 132.800,263.200 132.480,263.200 132.088 C 263.200 131.697,262.840 131.117,262.400 130.800 C 261.960 130.483,261.600 129.987,261.600 129.698 C 261.600 129.131,259.035 126.400,258.502 126.400 C 258.323 126.400,257.917 126.040,257.600 125.600 C 257.044 124.829,256.565 124.800,244.200 124.800 C 231.835 124.800,231.356 124.829,230.800 125.600 C 230.483 126.040,229.987 126.400,229.698 126.400 C 229.048 126.400,226.400 129.001,226.400 129.640 C 226.400 129.896,226.064 130.397,225.654 130.753 C 225.243 131.109,224.773 132.012,224.609 132.758 C 224.285 134.233,222.001 136.800,221.013 136.800 C 220.676 136.800,220.400 136.980,220.400 137.200 C 220.400 137.420,220.080 137.600,219.688 137.600 C 219.297 137.600,218.717 137.960,218.400 138.400 C 218.083 138.840,217.587 139.200,217.298 139.200 C 216.731 139.200,214.000 141.765,214.000 142.298 C 214.000 142.477,213.640 142.883,213.200 143.200 C 212.218 143.907,211.946 154.549,212.900 154.936 C 213.278 155.089,213.253 155.252,212.800 155.600 C 212.347 155.948,212.322 156.111,212.700 156.264 C 213.332 156.520,213.430 169.600,212.800 169.600 C 212.580 169.600,212.400 170.058,212.400 170.618 C 212.400 171.741,210.790 173.600,209.818 173.600 C 209.478 173.600,209.200 173.780,209.200 174.000 C 209.200 174.255,206.000 174.400,200.400 174.400 C 194.800 174.400,191.600 174.255,191.600 174.000 C 191.600 173.780,191.322 173.600,190.982 173.600 C 190.010 173.600,188.400 171.741,188.400 170.618 C 188.400 170.058,188.220 169.600,188.000 169.600 C 187.370 169.600,187.468 156.520,188.100 156.264 C 188.478 156.111,188.453 155.948,188.000 155.600 C 187.547 155.252,187.522 155.089,187.900 154.936 C 188.854 154.549,188.582 143.907,187.600 143.200 C 187.160 142.883,186.800 142.477,186.800 142.298 C 186.800 141.765,184.069 139.200,183.502 139.200 C 183.213 139.200,182.717 138.840,182.400 138.400 C 182.083 137.960,181.503 137.600,181.112 137.600 C 180.720 137.600,180.400 137.420,180.400 137.200 C 180.400 136.980,180.124 136.800,179.787 136.800 C 178.991 136.800,176.400 134.209,176.400 133.413 C 176.400 133.076,176.220 132.800,176.000 132.800 C 175.780 132.800,175.600 132.440,175.600 132.000 C 175.600 131.560,175.423 131.200,175.208 131.200 C 174.992 131.200,174.694 130.716,174.545 130.124 C 174.243 128.921,171.912 126.400,171.102 126.400 C 170.813 126.400,170.317 126.040,170.000 125.600 C 169.444 124.829,168.965 124.800,156.600 124.800 C 144.235 124.800,143.756 124.829,143.200 125.600 M180.400 212.000 C 180.400 212.220,180.126 212.400,179.791 212.400 C 179.457 212.400,178.155 213.428,176.898 214.685 C 173.764 217.818,173.569 220.515,176.294 223.042 C 178.824 225.387,179.114 225.600,179.783 225.600 C 180.122 225.600,180.400 225.780,180.400 226.000 C 180.400 226.220,180.940 226.400,181.600 226.400 C 182.260 226.400,182.800 226.220,182.800 226.000 C 182.800 225.780,183.078 225.600,183.417 225.600 C 184.080 225.600,184.379 225.383,186.813 223.131 C 187.686 222.324,188.400 221.379,188.400 221.031 C 188.400 220.684,188.580 220.400,188.800 220.400 C 189.020 220.400,189.200 219.860,189.200 219.200 C 189.200 218.540,189.020 218.000,188.800 218.000 C 188.580 218.000,188.400 217.726,188.400 217.391 C 188.400 216.599,184.201 212.400,183.409 212.400 C 183.074 212.400,182.800 212.220,182.800 212.000 C 182.800 211.780,182.260 211.600,181.600 211.600 C 180.940 211.600,180.400 211.780,180.400 212.000 M218.000 212.000 C 218.000 212.220,217.726 212.400,217.391 212.400 C 217.057 212.400,215.797 213.386,214.591 214.591 C 213.386 215.797,212.400 217.057,212.400 217.391 C 212.400 217.726,212.220 218.000,212.000 218.000 C 211.780 218.000,211.600 218.540,211.600 219.200 C 211.600 219.860,211.780 220.400,212.000 220.400 C 212.220 220.400,212.400 220.684,212.400 221.031 C 212.400 221.379,213.114 222.324,213.987 223.131 C 216.421 225.383,216.720 225.600,217.383 225.600 C 217.722 225.600,218.000 225.780,218.000 226.000 C 218.000 226.220,218.540 226.400,219.200 226.400 C 219.860 226.400,220.400 226.220,220.400 226.000 C 220.400 225.780,220.678 225.600,221.017 225.600 C 221.661 225.600,222.245 225.194,223.719 223.719 C 225.194 222.245,225.600 221.661,225.600 221.017 C 225.600 220.678,225.780 220.400,226.000 220.400 C 226.220 220.400,226.400 219.860,226.400 219.200 C 226.400 218.540,226.220 218.000,226.000 218.000 C 225.780 218.000,225.600 217.722,225.600 217.383 C 225.600 216.720,225.383 216.421,223.131 213.987 C 222.324 213.114,221.379 212.400,221.031 212.400 C 220.684 212.400,220.400 212.220,220.400 212.000 C 220.400 211.780,219.860 211.600,219.200 211.600 C 218.540 211.600,218.000 211.780,218.000 212.000 M155.053 224.665 C 154.027 224.956,150.000 229.041,150.000 229.791 C 150.000 230.126,149.820 230.400,149.600 230.400 C 149.380 230.400,149.200 230.940,149.200 231.600 C 149.200 232.260,149.380 232.800,149.600 232.800 C 149.820 232.800,150.000 233.074,150.000 233.409 C 150.000 234.201,154.199 238.400,154.991 238.400 C 155.326 238.400,155.600 238.580,155.600 238.800 C 155.600 239.020,156.140 239.200,156.800 239.200 C 157.460 239.200,158.000 239.020,158.000 238.800 C 158.000 238.580,158.184 238.400,158.409 238.400 C 159.056 238.400,163.200 234.083,163.200 233.409 C 163.200 233.074,163.380 232.800,163.600 232.800 C 163.820 232.800,164.000 232.260,164.000 231.600 C 164.000 230.940,163.820 230.400,163.600 230.400 C 163.380 230.400,163.200 230.126,163.200 229.791 C 163.200 227.519,157.544 223.960,155.053 224.665 M242.437 224.665 C 241.436 225.098,237.600 229.164,237.600 229.791 C 237.600 230.126,237.420 230.400,237.200 230.400 C 236.980 230.400,236.800 230.940,236.800 231.600 C 236.800 232.260,236.980 232.800,237.200 232.800 C 237.420 232.800,237.600 233.074,237.600 233.409 C 237.600 234.083,241.744 238.400,242.391 238.400 C 242.616 238.400,242.800 238.580,242.800 238.800 C 242.800 239.020,243.340 239.200,244.000 239.200 C 244.660 239.200,245.200 239.020,245.200 238.800 C 245.200 238.580,245.474 238.400,245.809 238.400 C 246.601 238.400,250.800 234.201,250.800 233.409 C 250.800 233.074,250.980 232.800,251.200 232.800 C 251.420 232.800,251.600 232.260,251.600 231.600 C 251.600 230.940,251.420 230.400,251.200 230.400 C 250.980 230.400,250.800 230.126,250.800 229.791 C 250.800 227.494,244.633 223.714,242.437 224.665 M168.000 251.200 C 168.000 251.420,167.725 251.600,167.389 251.600 C 166.614 251.600,163.200 254.987,163.200 255.756 C 163.200 256.074,162.975 256.414,162.700 256.513 C 162.361 256.635,162.490 256.950,163.100 257.493 C 163.595 257.933,164.000 258.414,164.000 258.560 C 164.000 259.050,166.766 261.600,167.298 261.600 C 167.587 261.600,168.083 261.960,168.400 262.400 C 168.717 262.840,169.297 263.200,169.688 263.200 C 170.080 263.200,170.400 263.380,170.400 263.600 C 170.400 263.820,170.676 264.000,171.013 264.000 C 172.001 264.000,174.285 266.567,174.609 268.042 C 174.773 268.788,175.243 269.691,175.654 270.047 C 176.064 270.403,176.400 270.904,176.400 271.160 C 176.400 271.923,178.964 274.254,180.124 274.545 C 180.716 274.694,181.200 274.992,181.200 275.208 C 181.200 275.423,181.560 275.600,182.000 275.600 C 182.440 275.600,182.800 275.780,182.800 276.000 C 182.800 276.220,183.076 276.400,183.413 276.400 C 184.209 276.400,186.800 278.991,186.800 279.787 C 186.800 280.124,186.980 280.400,187.200 280.400 C 187.420 280.400,187.600 280.720,187.600 281.112 C 187.600 281.503,187.960 282.083,188.400 282.400 C 188.840 282.717,189.200 283.213,189.200 283.502 C 189.200 284.069,191.765 286.800,192.298 286.800 C 192.477 286.800,192.883 287.160,193.200 287.600 C 193.737 288.345,194.235 288.400,200.400 288.400 C 206.565 288.400,207.063 288.345,207.600 287.600 C 207.917 287.160,208.323 286.800,208.502 286.800 C 209.035 286.800,211.600 284.069,211.600 283.502 C 211.600 283.213,211.960 282.717,212.400 282.400 C 212.840 282.083,213.200 281.503,213.200 281.112 C 213.200 280.720,213.380 280.400,213.600 280.400 C 213.820 280.400,214.000 280.124,214.000 279.787 C 214.000 278.991,216.591 276.400,217.387 276.400 C 217.724 276.400,218.000 276.220,218.000 276.000 C 218.000 275.780,218.360 275.600,218.800 275.600 C 219.240 275.600,219.600 275.423,219.600 275.208 C 219.600 274.992,220.084 274.694,220.676 274.545 C 222.060 274.198,224.198 272.060,224.545 270.676 C 224.694 270.084,224.992 269.600,225.208 269.600 C 225.423 269.600,225.600 269.240,225.600 268.800 C 225.600 268.360,225.780 268.000,226.000 268.000 C 226.220 268.000,226.400 267.724,226.400 267.387 C 226.400 266.591,228.991 264.000,229.787 264.000 C 230.124 264.000,230.400 263.820,230.400 263.600 C 230.400 263.380,230.720 263.200,231.112 263.200 C 231.503 263.200,232.083 262.840,232.400 262.400 C 232.717 261.960,233.213 261.600,233.502 261.600 C 234.034 261.600,236.800 259.050,236.800 258.560 C 236.800 258.414,237.205 257.933,237.700 257.493 C 238.310 256.950,238.439 256.635,238.100 256.513 C 237.825 256.414,237.600 256.074,237.600 255.756 C 237.600 254.987,234.186 251.600,233.411 251.600 C 233.075 251.600,232.800 251.420,232.800 251.200 C 232.800 250.937,221.733 250.800,200.400 250.800 C 179.067 250.800,168.000 250.937,168.000 251.200 M268.400 325.600 C 268.083 326.040,267.587 326.400,267.298 326.400 C 266.648 326.400,264.000 329.001,264.000 329.640 C 264.000 329.896,263.612 330.442,263.139 330.853 L 262.278 331.600 263.139 332.347 C 263.612 332.758,264.000 333.304,264.000 333.560 C 264.000 334.199,266.648 336.800,267.298 336.800 C 267.587 336.800,268.083 337.160,268.400 337.600 C 268.886 338.274,269.435 338.400,271.888 338.400 L 274.800 338.400 274.800 344.200 L 274.800 350.000 271.888 350.000 C 269.435 350.000,268.886 350.126,268.400 350.800 C 268.083 351.240,267.587 351.600,267.298 351.600 C 266.616 351.600,264.000 354.216,264.000 354.898 C 264.000 355.187,263.640 355.683,263.200 356.000 C 262.457 356.535,262.400 357.035,262.400 363.000 C 262.400 368.965,262.457 369.465,263.200 370.000 C 263.640 370.317,264.000 370.813,264.000 371.102 C 264.000 371.816,266.631 374.400,267.358 374.400 C 267.680 374.400,268.226 374.683,268.571 375.029 C 269.143 375.600,269.257 375.600,269.829 375.029 C 270.174 374.683,270.720 374.400,271.042 374.400 C 271.901 374.400,274.233 371.921,274.545 370.676 C 274.694 370.084,274.992 369.600,275.208 369.600 C 275.453 369.600,275.600 366.078,275.600 360.200 L 275.600 350.800 279.200 350.800 C 281.333 350.800,282.800 350.963,282.800 351.200 C 282.800 351.420,283.076 351.600,283.413 351.600 C 284.209 351.600,286.800 354.191,286.800 354.987 C 286.800 355.324,286.980 355.600,287.200 355.600 C 287.451 355.600,287.600 358.171,287.600 362.512 C 287.600 368.965,287.653 369.462,288.400 370.000 C 288.840 370.317,289.200 370.813,289.200 371.102 C 289.200 371.705,291.780 374.400,292.358 374.400 C 292.570 374.400,293.026 374.683,293.371 375.029 C 293.943 375.600,294.057 375.600,294.629 375.029 C 294.974 374.683,295.520 374.400,295.842 374.400 C 296.569 374.400,299.200 371.816,299.200 371.102 C 299.200 370.813,299.560 370.317,300.000 370.000 C 300.781 369.437,300.800 368.965,300.800 350.400 C 300.800 331.835,300.781 331.363,300.000 330.800 C 299.560 330.483,299.200 329.987,299.200 329.698 C 299.200 329.048,296.599 326.400,295.960 326.400 C 295.704 326.400,295.158 326.012,294.747 325.539 L 294.000 324.678 293.253 325.539 C 292.842 326.012,292.386 326.400,292.240 326.400 C 291.750 326.400,289.200 329.166,289.200 329.698 C 289.200 329.987,288.840 330.483,288.400 330.800 C 287.960 331.117,287.600 331.697,287.600 332.088 C 287.600 332.480,287.420 332.800,287.200 332.800 C 286.980 332.800,286.800 333.076,286.800 333.413 C 286.800 333.751,286.176 334.651,285.413 335.413 C 284.651 336.176,283.751 336.800,283.413 336.800 C 283.076 336.800,282.800 336.980,282.800 337.200 C 282.800 337.437,281.333 337.600,279.200 337.600 L 275.600 337.600 275.600 334.400 C 275.600 332.575,275.431 331.200,275.208 331.200 C 274.992 331.200,274.694 330.716,274.545 330.124 C 274.243 328.921,271.912 326.400,271.102 326.400 C 270.813 326.400,270.317 326.040,270.000 325.600 C 269.683 325.160,269.323 324.800,269.200 324.800 C 269.077 324.800,268.717 325.160,268.400 325.600 " stroke="none" fill="#dc5464" fill-rule="evenodd"></path><path id="path2" d="M188.400 149.967 C 188.400 153.405,188.261 154.790,187.900 154.936 C 187.522 155.089,187.547 155.252,188.000 155.600 C 188.453 155.948,188.478 156.111,188.100 156.264 C 187.468 156.520,187.370 169.600,188.000 169.600 C 188.220 169.600,188.400 170.058,188.400 170.618 C 188.400 171.741,190.010 173.600,190.982 173.600 C 191.322 173.600,191.600 173.780,191.600 174.000 C 191.600 174.255,194.800 174.400,200.400 174.400 C 206.000 174.400,209.200 174.255,209.200 174.000 C 209.200 173.780,209.478 173.600,209.818 173.600 C 210.790 173.600,212.400 171.741,212.400 170.618 C 212.400 170.058,212.580 169.600,212.800 169.600 C 213.430 169.600,213.332 156.520,212.700 156.264 C 212.322 156.111,212.347 155.948,212.800 155.600 C 213.253 155.252,213.278 155.089,212.900 154.936 C 212.539 154.790,212.400 153.405,212.400 149.967 C 212.400 147.056,212.244 145.200,212.000 145.200 C 211.780 145.200,211.600 145.476,211.600 145.813 C 211.600 146.499,209.058 149.200,208.413 149.200 C 208.186 149.200,208.000 149.380,208.000 149.600 C 208.000 149.853,205.200 150.000,200.400 150.000 C 195.600 150.000,192.800 149.853,192.800 149.600 C 192.800 149.380,192.614 149.200,192.387 149.200 C 191.742 149.200,189.200 146.499,189.200 145.813 C 189.200 145.476,189.020 145.200,188.800 145.200 C 188.556 145.200,188.400 147.056,188.400 149.967 M143.200 150.800 C 142.883 151.240,142.477 151.600,142.298 151.600 C 141.765 151.600,139.200 154.331,139.200 154.898 C 139.200 155.187,138.840 155.683,138.400 156.000 C 137.658 156.535,137.600 157.035,137.600 162.899 L 137.600 169.221 139.389 171.011 C 140.374 171.995,141.298 172.800,141.443 172.800 C 141.588 172.800,141.997 173.132,142.353 173.537 C 142.709 173.942,143.772 174.395,144.716 174.544 C 146.545 174.832,150.800 178.502,150.800 179.791 C 150.800 180.126,150.980 180.400,151.200 180.400 C 151.420 180.400,151.600 180.940,151.600 181.600 C 151.600 182.260,151.420 182.800,151.200 182.800 C 150.980 182.800,150.800 183.074,150.800 183.409 C 150.800 183.743,149.814 185.003,148.609 186.209 C 147.403 187.414,146.143 188.400,145.809 188.400 C 145.474 188.400,145.200 188.580,145.200 188.800 C 145.200 189.020,144.700 189.200,144.088 189.200 C 143.435 189.200,142.739 189.530,142.400 190.000 C 142.083 190.440,141.676 190.800,141.495 190.800 C 141.153 190.800,140.811 191.061,138.740 192.909 L 137.497 194.017 138.349 194.755 C 138.817 195.162,139.200 195.704,139.200 195.960 C 139.200 196.486,141.796 199.200,142.298 199.200 C 142.477 199.200,142.883 199.560,143.200 200.000 C 143.517 200.440,144.097 200.800,144.488 200.800 C 144.880 200.800,145.200 200.980,145.200 201.200 C 145.200 201.420,145.476 201.600,145.813 201.600 C 146.609 201.600,149.200 204.191,149.200 204.987 C 149.200 205.324,149.380 205.600,149.600 205.600 C 149.820 205.600,150.000 206.140,150.000 206.800 C 150.000 207.460,149.820 208.000,149.600 208.000 C 149.380 208.000,149.200 208.186,149.200 208.413 C 149.200 209.058,146.499 211.600,145.813 211.600 C 145.476 211.600,145.200 211.780,145.200 212.000 C 145.200 212.220,144.880 212.400,144.488 212.400 C 144.097 212.400,143.517 212.760,143.200 213.200 C 142.883 213.640,142.477 214.000,142.298 214.000 C 141.765 214.000,139.200 216.731,139.200 217.298 C 139.200 217.587,138.840 218.083,138.400 218.400 C 137.960 218.717,137.600 219.297,137.600 219.688 C 137.600 220.080,137.420 220.400,137.200 220.400 C 136.980 220.400,136.800 220.684,136.800 221.031 C 136.800 221.907,133.704 224.800,132.767 224.800 C 132.345 224.800,132.000 224.903,132.000 225.029 C 132.000 225.427,133.125 226.400,133.585 226.400 C 134.251 226.400,136.800 229.085,136.800 229.787 C 136.800 230.124,136.980 230.400,137.200 230.400 C 137.420 230.400,137.600 230.720,137.600 231.112 C 137.600 231.503,137.960 232.083,138.400 232.400 C 138.840 232.717,139.200 233.213,139.200 233.502 C 139.200 234.069,141.765 236.800,142.298 236.800 C 142.477 236.800,142.883 237.160,143.200 237.600 C 143.517 238.040,144.012 238.400,144.299 238.400 C 144.586 238.400,145.599 239.165,146.551 240.100 C 147.502 241.035,148.667 242.065,149.140 242.388 C 149.613 242.712,150.000 243.257,150.000 243.600 C 150.000 243.943,150.360 244.483,150.800 244.800 C 151.240 245.117,151.600 245.613,151.600 245.902 C 151.600 246.584,154.216 249.200,154.898 249.200 C 155.187 249.200,155.683 249.560,156.000 250.000 C 156.317 250.440,156.897 250.800,157.288 250.800 C 157.680 250.800,158.000 250.980,158.000 251.200 C 158.000 251.420,158.186 251.600,158.413 251.600 C 158.967 251.600,161.600 254.257,161.600 254.815 C 161.600 255.275,162.573 256.400,162.971 256.400 C 163.097 256.400,163.200 256.125,163.200 255.789 C 163.200 254.996,166.596 251.600,167.389 251.600 C 167.725 251.600,168.000 251.420,168.000 251.200 C 168.000 250.937,179.067 250.800,200.400 250.800 C 221.733 250.800,232.800 250.937,232.800 251.200 C 232.800 251.420,233.075 251.600,233.411 251.600 C 234.204 251.600,237.600 254.996,237.600 255.789 C 237.600 256.125,237.703 256.400,237.829 256.400 C 238.227 256.400,239.200 255.275,239.200 254.815 C 239.200 254.257,241.833 251.600,242.387 251.600 C 242.614 251.600,242.800 251.420,242.800 251.200 C 242.800 250.980,243.120 250.800,243.512 250.800 C 243.903 250.800,244.483 250.440,244.800 250.000 C 245.117 249.560,245.613 249.200,245.902 249.200 C 246.190 249.200,247.051 248.576,247.813 247.813 C 248.576 247.051,249.200 246.190,249.200 245.902 C 249.200 245.613,249.560 245.117,250.000 244.800 C 250.440 244.483,250.800 243.943,250.800 243.600 C 250.800 243.257,251.187 242.712,251.660 242.388 C 252.133 242.065,253.298 241.035,254.249 240.100 C 255.201 239.165,256.214 238.400,256.501 238.400 C 256.788 238.400,257.283 238.040,257.600 237.600 C 257.917 237.160,258.323 236.800,258.502 236.800 C 259.035 236.800,261.600 234.069,261.600 233.502 C 261.600 233.213,261.960 232.717,262.400 232.400 C 262.840 232.083,263.200 231.503,263.200 231.112 C 263.200 230.720,263.380 230.400,263.600 230.400 C 263.820 230.400,264.000 230.124,264.000 229.787 C 264.000 229.085,266.549 226.400,267.215 226.400 C 267.675 226.400,268.800 225.427,268.800 225.029 C 268.800 224.903,268.455 224.800,268.033 224.800 C 267.096 224.800,264.000 221.907,264.000 221.031 C 264.000 220.684,263.820 220.400,263.600 220.400 C 263.380 220.400,263.200 220.080,263.200 219.688 C 263.200 219.297,262.840 218.717,262.400 218.400 C 261.960 218.083,261.600 217.587,261.600 217.298 C 261.600 216.731,259.035 214.000,258.502 214.000 C 258.323 214.000,257.917 213.640,257.600 213.200 C 257.283 212.760,256.703 212.400,256.312 212.400 C 255.920 212.400,255.600 212.220,255.600 212.000 C 255.600 211.780,255.324 211.600,254.987 211.600 C 254.301 211.600,251.600 209.058,251.600 208.413 C 251.600 208.186,251.420 208.000,251.200 208.000 C 250.980 208.000,250.800 207.460,250.800 206.800 C 250.800 206.140,250.980 205.600,251.200 205.600 C 251.420 205.600,251.600 205.324,251.600 204.987 C 251.600 204.191,254.191 201.600,254.987 201.600 C 255.324 201.600,255.600 201.420,255.600 201.200 C 255.600 200.980,255.920 200.800,256.312 200.800 C 256.703 200.800,257.283 200.440,257.600 200.000 C 257.917 199.560,258.323 199.200,258.502 199.200 C 259.004 199.200,261.600 196.486,261.600 195.960 C 261.600 195.704,261.983 195.162,262.451 194.755 L 263.303 194.017 261.951 192.807 C 259.839 190.916,259.671 190.800,259.044 190.800 C 258.719 190.800,258.340 190.440,258.200 190.000 C 258.022 189.440,257.595 189.200,256.773 189.200 C 256.128 189.200,255.600 189.020,255.600 188.800 C 255.600 188.580,255.326 188.400,254.991 188.400 C 254.199 188.400,250.000 184.201,250.000 183.409 C 250.000 183.074,249.820 182.800,249.600 182.800 C 249.380 182.800,249.200 182.260,249.200 181.600 C 249.200 180.940,249.380 180.400,249.600 180.400 C 249.820 180.400,250.000 180.126,250.000 179.791 C 250.000 178.440,254.289 174.800,256.189 174.540 C 257.449 174.367,258.050 174.073,258.217 173.547 C 258.347 173.136,258.717 172.800,259.037 172.800 C 259.358 172.800,260.426 171.995,261.411 171.011 L 263.200 169.221 263.200 162.899 C 263.200 157.035,263.142 156.535,262.400 156.000 C 261.960 155.683,261.600 155.187,261.600 154.898 C 261.600 154.366,259.050 151.600,258.560 151.600 C 258.414 151.600,257.958 151.212,257.547 150.739 L 256.800 149.878 256.053 150.739 C 255.642 151.212,255.096 151.600,254.840 151.600 C 254.201 151.600,251.600 154.248,251.600 154.898 C 251.600 155.187,251.240 155.683,250.800 156.000 C 250.360 156.317,250.000 156.897,250.000 157.288 C 250.000 157.680,249.820 158.000,249.600 158.000 C 249.380 158.000,249.200 158.186,249.200 158.413 C 249.200 159.058,246.499 161.600,245.813 161.600 C 245.476 161.600,245.200 161.780,245.200 162.000 C 245.200 162.220,244.880 162.400,244.488 162.400 C 244.097 162.400,243.517 162.760,243.200 163.200 C 242.883 163.640,242.477 164.000,242.298 164.000 C 241.765 164.000,239.200 166.731,239.200 167.298 C 239.200 167.587,238.840 168.083,238.400 168.400 C 237.653 168.938,237.600 169.435,237.600 175.888 C 237.600 180.229,237.451 182.800,237.200 182.800 C 236.980 182.800,236.800 183.076,236.800 183.413 C 236.800 184.209,234.209 186.800,233.413 186.800 C 233.076 186.800,232.800 186.980,232.800 187.200 C 232.800 187.420,232.260 187.600,231.600 187.600 C 230.940 187.600,230.400 187.420,230.400 187.200 C 230.400 186.980,230.124 186.800,229.787 186.800 C 228.991 186.800,226.400 184.209,226.400 183.413 C 226.400 183.076,226.220 182.800,226.000 182.800 C 225.780 182.800,225.600 182.440,225.600 182.000 C 225.600 181.560,225.423 181.200,225.208 181.200 C 224.992 181.200,224.694 180.716,224.545 180.124 C 224.254 178.964,221.923 176.400,221.160 176.400 C 220.904 176.400,220.333 175.995,219.893 175.500 C 219.350 174.890,219.035 174.761,218.913 175.100 C 218.814 175.375,218.290 175.600,217.748 175.600 C 216.653 175.600,214.800 177.223,214.800 178.182 C 214.800 178.522,214.620 178.800,214.400 178.800 C 214.180 178.800,214.000 179.700,214.000 180.800 C 214.000 181.900,213.820 182.800,213.600 182.800 C 213.380 182.800,213.200 183.074,213.200 183.409 C 213.200 184.083,209.056 188.400,208.409 188.400 C 208.184 188.400,208.000 188.580,208.000 188.800 C 208.000 189.053,205.200 189.200,200.400 189.200 C 195.600 189.200,192.800 189.053,192.800 188.800 C 192.800 188.580,192.616 188.400,192.391 188.400 C 191.744 188.400,187.600 184.083,187.600 183.409 C 187.600 183.074,187.420 182.800,187.200 182.800 C 186.980 182.800,186.800 181.900,186.800 180.800 C 186.800 179.700,186.620 178.800,186.400 178.800 C 186.180 178.800,186.000 178.522,186.000 178.182 C 186.000 177.223,184.147 175.600,183.052 175.600 C 182.510 175.600,181.986 175.375,181.887 175.100 C 181.765 174.761,181.450 174.890,180.907 175.500 C 180.467 175.995,179.896 176.400,179.640 176.400 C 179.033 176.400,176.400 179.033,176.400 179.640 C 176.400 179.896,176.064 180.397,175.654 180.753 C 175.243 181.109,174.773 182.012,174.609 182.758 C 174.285 184.233,172.001 186.800,171.013 186.800 C 170.676 186.800,170.400 186.980,170.400 187.200 C 170.400 187.420,169.860 187.600,169.200 187.600 C 168.540 187.600,168.000 187.420,168.000 187.200 C 168.000 186.980,167.724 186.800,167.387 186.800 C 166.591 186.800,164.000 184.209,164.000 183.413 C 164.000 183.076,163.820 182.800,163.600 182.800 C 163.349 182.800,163.200 180.229,163.200 175.888 C 163.200 169.435,163.147 168.938,162.400 168.400 C 161.960 168.083,161.600 167.587,161.600 167.298 C 161.600 166.731,159.035 164.000,158.502 164.000 C 158.323 164.000,157.917 163.640,157.600 163.200 C 157.283 162.760,156.703 162.400,156.312 162.400 C 155.920 162.400,155.600 162.220,155.600 162.000 C 155.600 161.780,155.324 161.600,154.987 161.600 C 154.301 161.600,151.600 159.058,151.600 158.413 C 151.600 158.186,151.420 158.000,151.200 158.000 C 150.980 158.000,150.800 157.680,150.800 157.288 C 150.800 156.897,150.440 156.317,150.000 156.000 C 149.560 155.683,149.200 155.187,149.200 154.898 C 149.200 154.610,148.576 153.749,147.813 152.987 C 147.051 152.224,146.190 151.600,145.902 151.600 C 145.613 151.600,145.117 151.240,144.800 150.800 C 144.483 150.360,144.123 150.000,144.000 150.000 C 143.877 150.000,143.517 150.360,143.200 150.800 M182.800 212.000 C 182.800 212.220,183.074 212.400,183.409 212.400 C 184.201 212.400,188.400 216.599,188.400 217.391 C 188.400 217.726,188.580 218.000,188.800 218.000 C 189.020 218.000,189.200 218.540,189.200 219.200 C 189.200 219.860,189.020 220.400,188.800 220.400 C 188.580 220.400,188.400 220.684,188.400 221.031 C 188.400 221.379,187.686 222.324,186.813 223.131 C 184.379 225.383,184.080 225.600,183.417 225.600 C 183.078 225.600,182.800 225.780,182.800 226.000 C 182.800 226.220,182.260 226.400,181.600 226.400 C 180.940 226.400,180.400 226.220,180.400 226.000 C 180.400 225.780,180.122 225.600,179.783 225.600 C 179.114 225.600,178.824 225.387,176.294 223.042 C 173.569 220.515,173.764 217.818,176.898 214.685 C 178.155 213.428,179.457 212.400,179.791 212.400 C 180.126 212.400,180.400 212.220,180.400 212.000 C 180.400 211.780,180.940 211.600,181.600 211.600 C 182.260 211.600,182.800 211.780,182.800 212.000 M220.400 212.000 C 220.400 212.220,220.684 212.400,221.031 212.400 C 221.379 212.400,222.324 213.114,223.131 213.987 C 225.383 216.421,225.600 216.720,225.600 217.383 C 225.600 217.722,225.780 218.000,226.000 218.000 C 226.220 218.000,226.400 218.540,226.400 219.200 C 226.400 219.860,226.220 220.400,226.000 220.400 C 225.780 220.400,225.600 220.678,225.600 221.017 C 225.600 221.661,225.194 222.245,223.719 223.719 C 222.245 225.194,221.661 225.600,221.017 225.600 C 220.678 225.600,220.400 225.780,220.400 226.000 C 220.400 226.220,219.860 226.400,219.200 226.400 C 218.540 226.400,218.000 226.220,218.000 226.000 C 218.000 225.780,217.722 225.600,217.383 225.600 C 216.720 225.600,216.421 225.383,213.987 223.131 C 213.114 222.324,212.400 221.379,212.400 221.031 C 212.400 220.684,212.220 220.400,212.000 220.400 C 211.780 220.400,211.600 219.860,211.600 219.200 C 211.600 218.540,211.780 218.000,212.000 218.000 C 212.220 218.000,212.400 217.726,212.400 217.391 C 212.400 217.057,213.386 215.797,214.591 214.591 C 215.797 213.386,217.057 212.400,217.391 212.400 C 217.726 212.400,218.000 212.220,218.000 212.000 C 218.000 211.780,218.540 211.600,219.200 211.600 C 219.860 211.600,220.400 211.780,220.400 212.000 M160.966 226.949 C 162.195 228.177,163.200 229.457,163.200 229.791 C 163.200 230.126,163.380 230.400,163.600 230.400 C 163.820 230.400,164.000 230.940,164.000 231.600 C 164.000 232.260,163.820 232.800,163.600 232.800 C 163.380 232.800,163.200 233.074,163.200 233.409 C 163.200 234.083,159.056 238.400,158.409 238.400 C 158.184 238.400,158.000 238.580,158.000 238.800 C 158.000 239.020,157.460 239.200,156.800 239.200 C 156.140 239.200,155.600 239.020,155.600 238.800 C 155.600 238.580,155.326 238.400,154.991 238.400 C 154.199 238.400,150.000 234.201,150.000 233.409 C 150.000 233.074,149.820 232.800,149.600 232.800 C 149.380 232.800,149.200 232.260,149.200 231.600 C 149.200 230.940,149.380 230.400,149.600 230.400 C 149.820 230.400,150.000 230.126,150.000 229.791 C 150.000 229.041,154.027 224.956,155.053 224.665 C 157.125 224.079,158.707 224.690,160.966 226.949 M248.601 226.984 C 249.811 228.193,250.800 229.457,250.800 229.791 C 250.800 230.126,250.980 230.400,251.200 230.400 C 251.420 230.400,251.600 230.940,251.600 231.600 C 251.600 232.260,251.420 232.800,251.200 232.800 C 250.980 232.800,250.800 233.074,250.800 233.409 C 250.800 233.743,249.814 235.003,248.609 236.209 C 247.403 237.414,246.143 238.400,245.809 238.400 C 245.474 238.400,245.200 238.580,245.200 238.800 C 245.200 239.020,244.660 239.200,244.000 239.200 C 243.340 239.200,242.800 239.020,242.800 238.800 C 242.800 238.580,242.616 238.400,242.391 238.400 C 241.744 238.400,237.600 234.083,237.600 233.409 C 237.600 233.074,237.420 232.800,237.200 232.800 C 236.980 232.800,236.800 232.260,236.800 231.600 C 236.800 230.940,236.980 230.400,237.200 230.400 C 237.420 230.400,237.600 230.126,237.600 229.791 C 237.600 229.164,241.436 225.098,242.437 224.665 C 244.138 223.929,246.395 224.778,248.601 226.984 " stroke="none" fill="#fccc34" fill-rule="evenodd"></path></g></svg>